<?xml version="1.0" encoding="iso-8859-1"?>
<!-- Generator: Adobe Illustrator 19.0.0, SVG Export Plug-In . SVG Version: 6.00 Build 0)  -->
<svg xmlns="http://www.w3.org/2000/svg" xmlns:xlink="http://www.w3.org/1999/xlink" version="1.1" id="Layer_1" x="0px" y="0px" viewBox="0 0 512 512" style="enable-background:new 0 0 512 512;" xml:space="preserve" width="512" height="512">
<path d="M452,10H60C26.916,10,0,36.916,0,70v352c0,33.084,26.916,60,60,60h11v-40H60c-11.028,0-20-8.972-20-20V170h432v113h40V70  C512,36.916,485.084,10,452,10z M40,130V70c0-11.028,8.972-20,20-20h392c11.028,0,20,8.972,20,20v60H40z M110,90  c0,11.046-8.954,20-20,20s-20-8.954-20-20c0-11.046,8.954-20,20-20S110,78.954,110,90z M180,90c0,11.046-8.954,20-20,20  s-20-8.954-20-20c0-11.046,8.954-20,20-20S180,78.954,180,90z M472,320h40v182h-40v-60h-40c-22.056,0-40-17.944-40-40v-82h40v82h40  V320z M174,320h40v182h-40v-60h-40c-22.056,0-40-17.944-40-40v-82h40v82h40V320z M304.5,320c-33.36,0-60.5,27.14-60.5,60.5v61  c0,33.36,27.14,60.5,60.5,60.5s60.5-27.14,60.5-60.5v-61C365,347.14,337.86,320,304.5,320z M325,441.5  c0,11.304-9.196,20.5-20.5,20.5s-20.5-9.196-20.5-20.5v-61c0-11.304,9.196-20.5,20.5-20.5s20.5,9.196,20.5,20.5V441.5z"/>















</svg>
